<svg width="530" height="383" viewBox="0 0 530 383" fill="none" xmlns="http://www.w3.org/2000/svg">
<g clip-path="url(#clip0_74_512)">
<path d="M528.711 379.542H0.765139C0.562211 379.542 0.367595 379.461 0.224103 379.317C0.080612 379.174 0 378.979 0 378.776C0 378.573 0.080612 378.379 0.224103 378.235C0.367595 378.092 0.562211 378.011 0.765139 378.011H528.711C528.914 378.011 529.109 378.092 529.252 378.235C529.396 378.379 529.476 378.573 529.476 378.776C529.476 378.979 529.396 379.174 529.252 379.317C529.109 379.461 528.914 379.542 528.711 379.542Z" fill="#CCCCCC"/>
<path d="M476.456 246.101H165.809C164.49 246.101 163.225 246.625 162.293 247.557C161.36 248.49 160.836 249.755 160.836 251.074C160.836 252.393 161.36 253.658 162.293 254.591C163.225 255.523 164.49 256.047 165.809 256.047H174.608V375.027C174.608 376.346 175.132 377.611 176.065 378.543C176.998 379.476 178.263 380 179.582 380C180.901 380 182.166 379.476 183.099 378.543C184.031 377.611 184.555 376.346 184.555 375.027L184.631 256.047H456.945V375.027C456.945 376.346 457.469 377.611 458.401 378.543C459.334 379.476 460.599 380 461.918 380C463.237 380 464.502 379.476 465.435 378.543C466.368 377.611 466.892 376.346 466.892 375.027V258.67L468.338 256.047H476.456C477.775 256.047 479.04 255.523 479.972 254.591C480.905 253.658 481.429 252.393 481.429 251.074C481.429 249.755 480.905 248.49 479.972 247.557C479.04 246.625 477.775 246.101 476.456 246.101Z" fill="#CCCCCC"/>
<path d="M338.033 248.703H243.935C242.113 248.701 240.366 247.976 239.078 246.688C237.79 245.4 237.065 243.653 237.063 241.831V190.024C237.065 188.202 237.79 186.455 239.078 185.167C240.366 183.878 242.113 183.154 243.935 183.152H338.033C339.856 183.154 341.602 183.878 342.891 185.167C344.179 186.455 344.904 188.202 344.906 190.024V241.831C344.904 243.653 344.179 245.4 342.891 246.688C341.602 247.976 339.856 248.701 338.033 248.703Z" fill="#3F3D56"/>
<path d="M338.034 188.441H243.937C243.517 188.442 243.115 188.609 242.818 188.906C242.521 189.203 242.354 189.605 242.353 190.025V241.833C242.354 242.252 242.521 242.655 242.818 242.951C243.115 243.248 243.517 243.415 243.937 243.416H338.034C338.454 243.415 338.856 243.248 339.153 242.951C339.45 242.655 339.617 242.252 339.618 241.833V190.025C339.617 189.605 339.45 189.203 339.153 188.906C338.856 188.609 338.454 188.442 338.034 188.441Z" fill="white"/>
<path d="M299.01 225.12C299.01 225.12 287.746 222.524 281.55 227.283C275.355 232.042 289.435 242.857 289.435 242.857L299.01 225.12Z" fill="#2F2E41"/>
<path d="M291.537 220.215C297.405 220.215 302.162 215.458 302.162 209.59C302.162 203.722 297.405 198.964 291.537 198.964C285.668 198.964 280.911 203.722 280.911 209.59C280.911 215.458 285.668 220.215 291.537 220.215Z" fill="#A0616A"/>
<path d="M283.32 194.674C284.029 193.472 285.056 192.488 286.288 191.833C287.52 191.177 288.91 190.875 290.303 190.959C291.761 191.142 293.183 191.54 294.523 192.14L301.469 194.85C303.267 195.551 305.235 196.41 306.015 198.174C306.739 199.812 306.199 201.704 305.652 203.409L303.054 211.514C302.766 209.68 302.272 207.884 301.581 206.16C300.879 204.425 299.61 202.978 297.981 202.056C296.177 201.13 294.051 201.149 292.025 201.247C289.156 201.385 286.037 201.75 283.999 203.773C282.917 204.922 282.184 206.355 281.884 207.904C281.589 209.446 281.44 211.011 281.44 212.581C280.264 210.559 279.273 208.434 278.48 206.234C277.827 204.595 277.455 202.858 277.38 201.096C277.312 199.319 277.901 197.579 279.036 196.209C279.612 195.54 280.364 195.045 281.206 194.779C282.048 194.514 282.948 194.49 283.803 194.708L283.32 194.674Z" fill="#2F2E41"/>
<path d="M316.908 234.334C316.808 233.975 316.605 233.653 316.323 233.41C316.041 233.166 315.694 233.011 315.324 232.964C315.3 232.947 315.274 232.932 315.248 232.918L299.385 224.029C298.932 223.775 298.399 223.706 297.896 223.835C297.393 223.964 296.96 224.283 296.686 224.724L292.347 231.748L285.813 225.213L285.709 225.109C285.374 224.774 284.931 224.568 284.459 224.526C283.986 224.485 283.514 224.611 283.126 224.884L270.089 234.012C270.066 234.012 270.043 234.02 270.02 234.02C269.397 234.124 268.827 234.438 268.405 234.909C267.984 235.381 267.735 235.982 267.702 236.614L267.365 243.416H319.425L316.908 234.334Z" fill="#38BDF8"/>
<path d="M345.963 242.36H335.919C335.919 242.079 335.808 241.81 335.609 241.612C335.411 241.414 335.142 241.302 334.862 241.302H331.69C331.41 241.302 331.141 241.414 330.942 241.612C330.744 241.81 330.633 242.079 330.633 242.36H327.461C327.461 242.079 327.349 241.81 327.151 241.612C326.953 241.414 326.684 241.302 326.403 241.302H323.232C322.951 241.302 322.682 241.414 322.484 241.612C322.286 241.81 322.174 242.079 322.174 242.36H319.002C319.002 242.079 318.891 241.81 318.693 241.612C318.495 241.414 318.226 241.302 317.945 241.302H314.773C314.493 241.302 314.224 241.414 314.026 241.612C313.827 241.81 313.716 242.079 313.716 242.36H310.544C310.544 242.079 310.433 241.81 310.235 241.612C310.036 241.414 309.767 241.302 309.487 241.302H306.315C306.035 241.302 305.766 241.414 305.567 241.612C305.369 241.81 305.258 242.079 305.258 242.36H302.086C302.086 242.079 301.975 241.81 301.776 241.612C301.578 241.414 301.309 241.302 301.029 241.302H297.857C297.576 241.302 297.308 241.414 297.109 241.612C296.911 241.81 296.8 242.079 296.8 242.36H293.628C293.628 242.079 293.516 241.81 293.318 241.612C293.12 241.414 292.851 241.302 292.57 241.302H289.399C289.118 241.302 288.849 241.414 288.651 241.612C288.453 241.81 288.341 242.079 288.341 242.36H285.169C285.169 242.079 285.058 241.81 284.86 241.612C284.661 241.414 284.393 241.302 284.112 241.302H280.94C280.66 241.302 280.391 241.414 280.193 241.612C279.994 241.81 279.883 242.079 279.883 242.36H276.711C276.711 242.079 276.6 241.81 276.402 241.612C276.203 241.414 275.934 241.302 275.654 241.302H272.482C272.202 241.302 271.933 241.414 271.734 241.612C271.536 241.81 271.425 242.079 271.425 242.36H268.253C268.253 242.079 268.142 241.81 267.943 241.612C267.745 241.414 267.476 241.302 267.196 241.302H264.024C263.743 241.302 263.474 241.414 263.276 241.612C263.078 241.81 262.967 242.079 262.967 242.36H259.795C259.795 242.079 259.683 241.81 259.485 241.612C259.287 241.414 259.018 241.302 258.737 241.302H255.566C255.285 241.302 255.016 241.414 254.818 241.612C254.62 241.81 254.508 242.079 254.508 242.36H251.336C251.336 242.079 251.225 241.81 251.027 241.612C250.828 241.414 250.56 241.302 250.279 241.302H247.107C246.827 241.302 246.558 241.414 246.36 241.612C246.161 241.81 246.05 242.079 246.05 242.36H236.006C235.165 242.361 234.36 242.696 233.766 243.29C233.172 243.885 232.839 244.691 232.839 245.531C232.839 246.372 233.172 247.178 233.766 247.772C234.36 248.367 235.165 248.702 236.006 248.703H345.963C346.804 248.703 347.611 248.369 348.206 247.774C348.801 247.179 349.135 246.373 349.135 245.531C349.135 244.69 348.801 243.883 348.206 243.289C347.611 242.694 346.804 242.36 345.963 242.36Z" fill="#3F3D56"/>
<path d="M219.655 223.94V245.001H166.89C165.476 245.05 164.067 244.814 162.746 244.307C161.426 243.8 160.221 243.032 159.203 242.049C158.186 241.067 157.377 239.889 156.824 238.587C156.271 237.285 155.986 235.885 155.986 234.47C155.986 233.056 156.271 231.656 156.824 230.353C157.377 229.051 158.186 227.874 159.203 226.891C160.221 225.908 161.426 225.141 162.746 224.634C164.067 224.126 165.476 223.891 166.89 223.94H219.655Z" fill="#F2F2F2"/>
<path d="M220.952 244.838C220.952 245.053 220.867 245.259 220.715 245.411C220.563 245.563 220.357 245.648 220.142 245.648H165.951C163.007 245.648 160.185 244.479 158.103 242.398C156.022 240.317 154.853 237.494 154.853 234.551C154.853 231.608 156.022 228.785 158.103 226.704C160.185 224.623 163.007 223.453 165.951 223.453H220.142C220.357 223.453 220.563 223.539 220.715 223.691C220.867 223.843 220.952 224.049 220.952 224.263C220.952 224.478 220.867 224.684 220.715 224.836C220.563 224.988 220.357 225.073 220.142 225.073H165.951C163.438 225.076 161.03 226.075 159.254 227.852C157.479 229.629 156.482 232.039 156.482 234.551C156.482 237.063 157.479 239.472 159.254 241.249C161.03 243.027 163.438 244.026 165.951 244.028H220.142C220.357 244.028 220.563 244.114 220.715 244.266C220.867 244.418 220.952 244.624 220.952 244.838Z" fill="#38BDF8"/>
<path d="M219.656 228.8H162.953C162.932 228.8 162.911 228.796 162.891 228.788C162.871 228.78 162.853 228.768 162.838 228.753C162.823 228.737 162.811 228.72 162.802 228.7C162.794 228.68 162.79 228.659 162.79 228.638C162.79 228.616 162.794 228.595 162.802 228.575C162.811 228.556 162.823 228.538 162.838 228.523C162.853 228.508 162.871 228.496 162.891 228.488C162.911 228.48 162.932 228.475 162.953 228.476H219.656C219.699 228.476 219.74 228.493 219.77 228.523C219.8 228.554 219.817 228.595 219.817 228.638C219.817 228.68 219.8 228.721 219.77 228.752C219.74 228.782 219.699 228.799 219.656 228.8Z" fill="#CCCCCC"/>
<path d="M219.656 232.688H162.953C162.932 232.688 162.911 232.684 162.891 232.676C162.871 232.668 162.853 232.656 162.838 232.641C162.823 232.626 162.811 232.608 162.802 232.588C162.794 232.569 162.79 232.547 162.79 232.526C162.79 232.505 162.794 232.483 162.802 232.464C162.811 232.444 162.823 232.426 162.838 232.411C162.853 232.396 162.871 232.384 162.891 232.376C162.911 232.368 162.932 232.364 162.953 232.364H219.656C219.699 232.364 219.74 232.381 219.77 232.412C219.8 232.442 219.817 232.483 219.817 232.526C219.817 232.569 219.8 232.61 219.77 232.64C219.74 232.671 219.699 232.688 219.656 232.688Z" fill="#CCCCCC"/>
<path d="M219.656 236.576H162.953C162.932 236.577 162.911 236.573 162.891 236.564C162.871 236.556 162.853 236.544 162.838 236.529C162.823 236.514 162.811 236.496 162.802 236.477C162.794 236.457 162.79 236.436 162.79 236.414C162.79 236.393 162.794 236.372 162.802 236.352C162.811 236.332 162.823 236.315 162.838 236.299C162.853 236.284 162.871 236.273 162.891 236.264C162.911 236.256 162.932 236.252 162.953 236.252H219.656C219.699 236.253 219.74 236.27 219.77 236.3C219.8 236.331 219.817 236.372 219.817 236.414C219.817 236.457 219.8 236.498 219.77 236.529C219.74 236.559 219.699 236.576 219.656 236.576Z" fill="#CCCCCC"/>
<path d="M219.656 240.464H162.953C162.932 240.464 162.911 240.46 162.891 240.452C162.871 240.444 162.853 240.432 162.838 240.417C162.823 240.402 162.811 240.384 162.802 240.364C162.794 240.345 162.79 240.324 162.79 240.302C162.79 240.281 162.794 240.26 162.802 240.24C162.811 240.22 162.823 240.202 162.838 240.187C162.853 240.172 162.871 240.16 162.891 240.152C162.911 240.144 162.932 240.14 162.953 240.14H219.656C219.699 240.14 219.74 240.158 219.77 240.188C219.8 240.218 219.817 240.259 219.817 240.302C219.817 240.345 219.8 240.386 219.77 240.416C219.74 240.447 219.699 240.464 219.656 240.464Z" fill="#CCCCCC"/>
<path d="M209.709 201.75V222.811H156.943C155.53 222.86 154.121 222.625 152.8 222.117C151.479 221.61 150.274 220.843 149.257 219.86C148.239 218.877 147.43 217.7 146.878 216.398C146.325 215.095 146.04 213.695 146.04 212.281C146.04 210.866 146.325 209.466 146.878 208.164C147.43 206.862 148.239 205.684 149.257 204.702C150.274 203.719 151.479 202.951 152.8 202.444C154.121 201.937 155.53 201.701 156.943 201.75H209.709Z" fill="#F2F2F2"/>
<path d="M211.005 222.65C211.005 222.864 210.919 223.07 210.768 223.222C210.616 223.374 210.41 223.46 210.195 223.46H156.003C154.546 223.46 153.103 223.173 151.756 222.615C150.41 222.057 149.187 221.24 148.156 220.209C147.126 219.179 146.308 217.955 145.751 216.609C145.193 215.263 144.906 213.82 144.906 212.362C144.906 210.905 145.193 209.462 145.751 208.115C146.308 206.769 147.126 205.546 148.156 204.515C149.187 203.485 150.41 202.667 151.756 202.109C153.103 201.552 154.546 201.265 156.003 201.265H210.195C210.41 201.265 210.616 201.35 210.768 201.502C210.92 201.654 211.005 201.86 211.005 202.075C211.005 202.29 210.92 202.496 210.768 202.647C210.616 202.799 210.41 202.885 210.195 202.885H156.003C153.491 202.887 151.083 203.886 149.307 205.664C147.532 207.441 146.534 209.85 146.534 212.362C146.534 214.874 147.532 217.284 149.307 219.061C151.083 220.838 153.491 221.837 156.003 221.84H210.195C210.41 221.84 210.616 221.925 210.768 222.077C210.919 222.229 211.005 222.435 211.005 222.65Z" fill="#3F3D56"/>
<path d="M209.709 206.611H153.006C152.985 206.611 152.964 206.607 152.944 206.599C152.924 206.591 152.906 206.579 152.891 206.564C152.876 206.549 152.864 206.531 152.856 206.511C152.847 206.491 152.843 206.47 152.843 206.449C152.843 206.428 152.847 206.406 152.856 206.387C152.864 206.367 152.876 206.349 152.891 206.334C152.906 206.319 152.924 206.307 152.944 206.299C152.964 206.291 152.985 206.287 153.006 206.287H209.709C209.752 206.287 209.793 206.304 209.823 206.335C209.853 206.365 209.87 206.406 209.87 206.449C209.87 206.492 209.853 206.533 209.823 206.563C209.793 206.593 209.752 206.611 209.709 206.611Z" fill="#CCCCCC"/>
<path d="M209.709 210.499H153.006C152.985 210.499 152.964 210.495 152.944 210.487C152.924 210.478 152.906 210.467 152.891 210.452C152.876 210.436 152.864 210.419 152.856 210.399C152.847 210.379 152.843 210.358 152.843 210.337C152.843 210.315 152.847 210.294 152.856 210.274C152.864 210.255 152.876 210.237 152.891 210.222C152.906 210.207 152.924 210.195 152.944 210.187C152.964 210.178 152.985 210.174 153.006 210.175H209.709C209.752 210.175 209.793 210.192 209.823 210.222C209.853 210.253 209.87 210.294 209.87 210.337C209.87 210.379 209.853 210.42 209.823 210.451C209.793 210.481 209.752 210.498 209.709 210.499Z" fill="#CCCCCC"/>
<path d="M209.709 214.387H153.006C152.985 214.387 152.964 214.383 152.944 214.375C152.924 214.367 152.906 214.355 152.891 214.34C152.876 214.325 152.864 214.307 152.856 214.287C152.847 214.268 152.843 214.247 152.843 214.225C152.843 214.204 152.847 214.183 152.856 214.163C152.864 214.143 152.876 214.125 152.891 214.11C152.906 214.095 152.924 214.083 152.944 214.075C152.964 214.067 152.985 214.063 153.006 214.063H209.709C209.752 214.064 209.793 214.081 209.823 214.111C209.853 214.141 209.87 214.182 209.87 214.225C209.87 214.268 209.853 214.309 209.823 214.339C209.793 214.37 209.752 214.387 209.709 214.387Z" fill="#CCCCCC"/>
<path d="M209.709 218.275H153.006C152.985 218.275 152.964 218.271 152.944 218.263C152.924 218.255 152.906 218.243 152.891 218.228C152.876 218.213 152.864 218.195 152.856 218.175C152.847 218.156 152.843 218.135 152.843 218.113C152.843 218.092 152.847 218.071 152.856 218.051C152.864 218.031 152.876 218.013 152.891 217.998C152.906 217.983 152.924 217.971 152.944 217.963C152.964 217.955 152.985 217.951 153.006 217.951H209.709C209.752 217.951 209.793 217.969 209.823 217.999C209.853 218.029 209.87 218.07 209.87 218.113C209.87 218.156 209.853 218.197 209.823 218.227C209.793 218.258 209.752 218.275 209.709 218.275Z" fill="#CCCCCC"/>
<path d="M271.091 319.861V301.498C271.091 300.686 270.769 299.907 270.195 299.333C269.621 298.759 268.842 298.437 268.031 298.437H198.403C197.591 298.437 196.813 298.759 196.239 299.333C195.665 299.907 195.342 300.686 195.342 301.498V319.861H271.091Z" fill="#CCCCCC"/>
<path d="M271.091 326.747H195.342V350.467H271.091V326.747Z" fill="#CCCCCC"/>
<path d="M195.342 357.353V375.716C195.342 376.528 195.665 377.306 196.239 377.88C196.813 378.454 197.591 378.777 198.403 378.777H268.031C268.842 378.777 269.621 378.454 270.195 377.88C270.769 377.306 271.091 376.528 271.091 375.716V357.353H195.342Z" fill="#CCCCCC"/>
<path d="M232.835 312.211C234.103 312.211 235.131 311.183 235.131 309.915C235.131 308.647 234.103 307.619 232.835 307.619C231.567 307.619 230.539 308.647 230.539 309.915C230.539 311.183 231.567 312.211 232.835 312.211Z" fill="white"/>
<path d="M232.835 342.816C234.103 342.816 235.131 341.788 235.131 340.52C235.131 339.252 234.103 338.224 232.835 338.224C231.567 338.224 230.539 339.252 230.539 340.52C230.539 341.788 231.567 342.816 232.835 342.816Z" fill="white"/>
<path d="M232.958 372.774C234.226 372.774 235.253 371.746 235.253 370.478C235.253 369.21 234.226 368.182 232.958 368.182C231.69 368.182 230.662 369.21 230.662 370.478C230.662 371.746 231.69 372.774 232.958 372.774Z" fill="white"/>
<path d="M262.503 277.499V298.56H209.737C208.324 298.61 206.914 298.374 205.594 297.866C204.273 297.359 203.068 296.592 202.051 295.609C201.033 294.626 200.224 293.449 199.672 292.147C199.119 290.844 198.834 289.444 198.834 288.03C198.834 286.615 199.119 285.215 199.672 283.913C200.224 282.611 201.033 281.433 202.051 280.451C203.068 279.468 204.273 278.7 205.594 278.193C206.914 277.686 208.324 277.45 209.737 277.499H262.503Z" fill="#F2F2F2"/>
<path d="M263.799 298.398C263.799 298.613 263.714 298.819 263.562 298.971C263.41 299.123 263.204 299.208 262.989 299.208H208.798C207.34 299.209 205.895 298.923 204.548 298.366C203.201 297.809 201.976 296.991 200.945 295.961C199.913 294.93 199.095 293.706 198.537 292.359C197.978 291.012 197.691 289.569 197.691 288.11C197.691 286.652 197.978 285.209 198.537 283.862C199.095 282.514 199.913 281.291 200.945 280.26C201.976 279.229 203.201 278.412 204.548 277.855C205.895 277.298 207.34 277.012 208.798 277.013H262.989C263.204 277.013 263.41 277.098 263.562 277.25C263.714 277.402 263.799 277.608 263.799 277.823C263.799 278.038 263.714 278.244 263.562 278.396C263.41 278.548 263.204 278.633 262.989 278.633H208.798C206.286 278.635 203.877 279.635 202.102 281.412C200.326 283.189 199.329 285.598 199.329 288.11C199.329 290.623 200.326 293.032 202.102 294.809C203.877 296.586 206.286 297.586 208.798 297.588H262.989C263.204 297.588 263.41 297.673 263.562 297.825C263.714 297.977 263.799 298.183 263.799 298.398Z" fill="#3F3D56"/>
<path d="M262.503 282.36H205.8C205.779 282.36 205.758 282.356 205.738 282.348C205.718 282.34 205.7 282.328 205.685 282.313C205.67 282.298 205.658 282.28 205.65 282.26C205.641 282.24 205.637 282.219 205.637 282.198C205.637 282.176 205.641 282.155 205.65 282.135C205.658 282.116 205.67 282.098 205.685 282.083C205.7 282.068 205.718 282.056 205.738 282.048C205.758 282.04 205.779 282.036 205.8 282.036H262.503C262.546 282.036 262.587 282.053 262.617 282.084C262.647 282.114 262.664 282.155 262.664 282.198C262.664 282.24 262.647 282.281 262.617 282.312C262.587 282.342 262.546 282.359 262.503 282.36Z" fill="#CCCCCC"/>
<path d="M262.503 286.248H205.8C205.779 286.248 205.758 286.244 205.738 286.236C205.718 286.228 205.7 286.216 205.685 286.201C205.67 286.186 205.658 286.168 205.65 286.148C205.641 286.128 205.637 286.107 205.637 286.086C205.637 286.064 205.641 286.043 205.65 286.024C205.658 286.004 205.67 285.986 205.685 285.971C205.7 285.956 205.718 285.944 205.738 285.936C205.758 285.928 205.779 285.924 205.8 285.924H262.503C262.546 285.924 262.587 285.941 262.617 285.972C262.647 286.002 262.664 286.043 262.664 286.086C262.664 286.129 262.647 286.17 262.617 286.2C262.587 286.23 262.546 286.248 262.503 286.248Z" fill="#CCCCCC"/>
<path d="M262.503 290.136H205.8C205.779 290.136 205.758 290.132 205.738 290.124C205.718 290.116 205.7 290.104 205.685 290.089C205.67 290.074 205.658 290.056 205.65 290.036C205.641 290.016 205.637 289.995 205.637 289.974C205.637 289.952 205.641 289.931 205.65 289.912C205.658 289.892 205.67 289.874 205.685 289.859C205.7 289.844 205.718 289.832 205.738 289.824C205.758 289.816 205.779 289.812 205.8 289.812H262.503C262.546 289.812 262.587 289.829 262.617 289.86C262.647 289.89 262.664 289.931 262.664 289.974C262.664 290.017 262.647 290.058 262.617 290.088C262.587 290.118 262.546 290.135 262.503 290.136Z" fill="#CCCCCC"/>
<path d="M262.503 294.024H205.8C205.779 294.024 205.758 294.02 205.738 294.012C205.718 294.004 205.7 293.992 205.685 293.977C205.67 293.962 205.658 293.944 205.65 293.924C205.641 293.904 205.637 293.883 205.637 293.862C205.637 293.841 205.641 293.819 205.65 293.8C205.658 293.78 205.67 293.762 205.685 293.747C205.7 293.732 205.718 293.72 205.738 293.712C205.758 293.704 205.779 293.7 205.8 293.7H262.503C262.546 293.7 262.587 293.717 262.617 293.748C262.647 293.778 262.664 293.819 262.664 293.862C262.664 293.905 262.647 293.946 262.617 293.976C262.587 294.006 262.546 294.024 262.503 294.024Z" fill="#CCCCCC"/>
<path d="M191.37 140.037V5.75495C191.371 4.22917 191.978 2.76639 193.057 1.68751C194.136 0.608622 195.599 0.00173552 197.125 0H303.271C304.797 0.00174562 306.26 0.608636 307.339 1.68752C308.418 2.7664 309.024 4.22918 309.026 5.75495V140.037C309.024 141.563 308.418 143.025 307.339 144.104C306.26 145.183 304.797 145.79 303.271 145.792H197.125C195.599 145.79 194.136 145.183 193.057 144.104C191.978 143.025 191.371 141.563 191.37 140.037ZM197.125 1.27888C195.938 1.28021 194.8 1.75222 193.961 2.59136C193.122 3.43049 192.65 4.56823 192.648 5.75495V140.037C192.65 141.224 193.122 142.361 193.961 143.2C194.8 144.04 195.938 144.512 197.125 144.513H303.271C304.458 144.512 305.596 144.04 306.435 143.2C307.274 142.361 307.746 141.224 307.747 140.037V5.75495C307.746 4.56823 307.274 3.43049 306.435 2.59136C305.596 1.75222 304.458 1.28021 303.271 1.27888H197.125Z" fill="#E6E6E6"/>
<path d="M256.15 61.6685V34.0962C256.151 33.3333 256.454 32.6019 256.994 32.0625C257.533 31.523 258.264 31.2196 259.027 31.2188H282.392C283.155 31.2196 283.887 31.523 284.426 32.0625C284.966 32.6019 285.269 33.3333 285.27 34.0962V61.6685C285.269 62.4314 284.966 63.1628 284.426 63.7023C283.887 64.2417 283.155 64.5452 282.392 64.546H259.027C258.264 64.5452 257.533 64.2417 256.994 63.7023C256.454 63.1628 256.151 62.4314 256.15 61.6685Z" fill="#38BDF8"/>
<path d="M210.75 74.4573V46.885C210.75 46.1221 211.054 45.3907 211.593 44.8513C212.133 44.3118 212.864 44.0084 213.627 44.0076H236.992C237.755 44.0084 238.486 44.3118 239.026 44.8513C239.565 45.3907 239.869 46.1221 239.87 46.885V74.4573C239.869 75.2202 239.565 75.9516 239.026 76.4911C238.486 77.0305 237.755 77.334 236.992 77.3348H213.627C212.864 77.334 212.133 77.0305 211.593 76.4911C211.054 75.9516 210.75 75.2202 210.75 74.4573Z" fill="#CCCCCC"/>
<path d="M247.198 113.463V85.8907C247.199 85.1278 247.503 84.3963 248.042 83.8569C248.581 83.3175 249.313 83.014 250.076 83.0132H273.441C274.204 83.014 274.935 83.3175 275.474 83.8569C276.014 84.3963 276.317 85.1278 276.318 85.8907V113.463C276.317 114.226 276.014 114.957 275.474 115.497C274.935 116.036 274.204 116.34 273.441 116.34H250.076C249.313 116.34 248.581 116.036 248.042 115.497C247.503 114.957 247.199 114.226 247.198 113.463Z" fill="#FF6584"/>
<path d="M386.826 239.522H362.786C362.557 239.521 362.332 239.574 362.128 239.675L356.06 242.712C355.86 242.797 355.69 242.939 355.57 243.12C355.451 243.301 355.387 243.513 355.387 243.73C355.387 243.947 355.451 244.159 355.57 244.34C355.69 244.521 355.86 244.663 356.06 244.748L362.128 247.785C362.332 247.886 362.557 247.938 362.786 247.938H386.826C387.157 247.957 387.483 247.845 387.732 247.626C387.981 247.407 388.134 247.099 388.158 246.767V240.692C388.134 240.361 387.981 240.053 387.732 239.834C387.483 239.615 387.157 239.502 386.826 239.522Z" fill="#3F3D56"/>
<path d="M388.158 240.692V246.768C388.134 247.099 387.981 247.407 387.732 247.626C387.483 247.845 387.158 247.957 386.826 247.938H382.037V239.522H386.826C387.158 239.502 387.483 239.615 387.732 239.834C387.981 240.053 388.134 240.361 388.158 240.692Z" fill="#38BDF8"/>
<path d="M386.645 194.072C387.734 193.602 388.91 193.368 390.096 193.384C391.282 193.4 392.451 193.667 393.527 194.166C394.602 194.666 395.56 195.387 396.338 196.282C397.115 197.178 397.695 198.228 398.038 199.363C398.145 199.723 398.227 200.089 398.283 200.461L431.902 217.132L439.682 211.976L449.363 223.12L437.483 232.769C436.055 233.92 434.293 234.58 432.459 234.65C430.626 234.721 428.819 234.199 427.306 233.161L393.197 209.573C392.943 209.681 392.684 209.775 392.42 209.856C391.285 210.2 390.09 210.299 388.913 210.149C387.737 209.998 386.605 209.6 385.593 208.982C384.581 208.364 383.711 207.538 383.04 206.56C382.369 205.582 381.913 204.473 381.7 203.306C381.637 202.967 381.596 202.625 381.576 202.281C381.481 200.559 381.916 198.849 382.823 197.381C383.729 195.914 385.063 194.759 386.645 194.072Z" fill="#FFB8B8"/>
<path d="M456.666 296.714H419.932C419.932 297.77 382.073 298.627 382.073 298.627C381.479 299.075 380.937 299.588 380.458 300.157C379.02 301.873 378.235 304.04 378.239 306.279V307.809C378.24 310.345 379.248 312.777 381.042 314.571C382.835 316.364 385.267 317.372 387.804 317.373H456.666C459.202 317.371 461.633 316.363 463.426 314.569C465.22 312.776 466.228 310.345 466.23 307.809V306.279C466.227 303.743 465.218 301.312 463.425 299.52C461.632 297.727 459.202 296.718 456.666 296.714Z" fill="#3F3D56"/>
<path d="M416.708 381.265H426.655V316.993H416.708V381.265Z" fill="#3F3D56"/>
<path d="M388.398 380.915C388.398 381.99 403.471 381.331 422.064 381.331C440.657 381.331 455.73 381.99 455.73 380.915C455.73 379.841 440.657 371.318 422.064 371.318C403.471 371.318 388.398 379.841 388.398 380.915Z" fill="#3F3D56"/>
<path d="M397.377 373.383L387.997 373.382L383.534 349.053L397.378 349.054L397.377 373.383Z" fill="#FFB8B8"/>
<path d="M399.77 382.475L369.523 382.474V382.091C369.523 380.545 369.828 379.014 370.42 377.586C371.011 376.158 371.878 374.86 372.972 373.767C374.065 372.673 375.363 371.806 376.791 371.215C378.219 370.623 379.75 370.319 381.296 370.319H381.297L399.77 370.319L399.77 382.475Z" fill="#2F2E41"/>
<path d="M383.348 358.295L364.647 316.36C363.086 312.825 362.913 308.832 364.163 305.176C365.414 301.52 367.996 298.469 371.394 296.631L411.957 274.88L430.467 273.306L447.54 271.754L447.664 271.962C447.821 272.228 451.492 278.569 449.011 285.522C447.128 290.796 442.232 294.915 434.459 297.766C416.314 304.419 395.353 310.105 387.183 312.241C386.822 312.333 386.485 312.501 386.193 312.733C385.902 312.965 385.663 313.256 385.492 313.587C385.32 313.914 385.218 314.273 385.192 314.642C385.167 315.011 385.217 315.381 385.341 315.729L402.715 354.762C402.896 355.257 402.962 355.787 402.906 356.311C402.85 356.836 402.675 357.34 402.393 357.786C402.111 358.231 401.731 358.607 401.282 358.882C400.832 359.158 400.325 359.326 399.8 359.375L386.819 360.32C386.708 360.331 386.599 360.336 386.489 360.336C385.825 360.336 385.174 360.143 384.617 359.781C384.059 359.419 383.618 358.903 383.348 358.295Z" fill="#2F2E41"/>
<path d="M401.967 373.383L392.588 373.382L388.125 349.053L401.969 349.054L401.967 373.383Z" fill="#FFB8B8"/>
<path d="M404.36 382.475L374.114 382.474V382.091C374.114 380.545 374.418 379.014 375.01 377.586C375.602 376.158 376.469 374.86 377.562 373.767C378.655 372.673 379.953 371.806 381.381 371.215C382.81 370.623 384.341 370.319 385.887 370.319H385.887L404.361 370.319L404.36 382.475Z" fill="#2F2E41"/>
<path d="M388.703 360.591L370.002 318.655C368.441 315.121 368.268 311.128 369.519 307.472C370.769 303.816 373.351 300.765 376.75 298.927L417.313 277.176L435.822 275.601L452.896 274.049L453.019 274.258C453.177 274.524 456.848 280.865 454.366 287.817C452.484 293.091 447.588 297.21 439.814 300.061C421.669 306.714 400.708 312.4 392.539 314.536C392.178 314.628 391.84 314.796 391.549 315.028C391.257 315.26 391.018 315.551 390.847 315.882C390.676 316.21 390.574 316.569 390.548 316.937C390.522 317.306 390.573 317.676 390.697 318.024L408.071 357.057C408.252 357.552 408.317 358.082 408.261 358.607C408.206 359.131 408.03 359.635 407.749 360.081C407.467 360.527 407.087 360.902 406.637 361.178C406.188 361.453 405.681 361.622 405.156 361.67L392.174 362.616C392.064 362.626 391.954 362.631 391.845 362.631C391.18 362.631 390.53 362.438 389.972 362.076C389.414 361.714 388.974 361.198 388.703 360.591Z" fill="#2F2E41"/>
<path d="M379.382 232.483C371.524 222.03 365.311 210.436 360.961 198.104C360.709 197.366 360.727 196.563 361.012 195.838C361.296 195.112 361.829 194.511 362.516 194.141L389.407 179.732C389.842 179.498 390.324 179.365 390.818 179.345C391.312 179.325 391.804 179.418 392.257 179.617C392.718 179.817 393.127 180.12 393.454 180.502C393.78 180.885 394.015 181.337 394.14 181.823C397.27 193.707 403.154 204.687 411.314 213.876C411.65 214.25 411.897 214.695 412.034 215.179C412.172 215.662 412.197 216.171 412.109 216.666C412.024 217.153 411.829 217.614 411.538 218.014C411.248 218.414 410.87 218.743 410.434 218.975L383.543 233.384C382.855 233.751 382.059 233.861 381.297 233.696C380.535 233.531 379.857 233.102 379.382 232.483Z" fill="#CCCCCC"/>
<path d="M381.218 231.104C381.362 231.285 381.565 231.409 381.792 231.456C382.018 231.503 382.254 231.469 382.459 231.361L409.35 216.952C409.48 216.884 409.593 216.786 409.68 216.667C409.767 216.548 409.825 216.41 409.849 216.265C409.877 216.112 409.869 215.954 409.826 215.805C409.783 215.655 409.706 215.517 409.6 215.402C401.199 205.943 395.142 194.64 391.92 182.406C391.883 182.254 391.811 182.114 391.711 181.995C391.61 181.876 391.483 181.782 391.34 181.721C391.206 181.661 391.059 181.632 390.912 181.639C390.764 181.645 390.62 181.685 390.491 181.756L363.6 196.165C363.397 196.275 363.238 196.452 363.151 196.667C363.065 196.882 363.056 197.12 363.126 197.341C367.399 209.452 373.5 220.839 381.218 231.104Z" fill="white"/>
<path d="M468.718 228.64L447.658 236.643L442.516 222.36C441.834 220.464 441.843 218.387 442.544 216.497C443.244 214.607 444.59 213.025 446.344 212.031C448.118 211.026 450.193 210.688 452.194 211.079C454.195 211.469 455.991 212.563 457.256 214.162L468.718 228.64Z" fill="#38BDF8"/>
<path d="M415.152 285.229C414.708 284.916 414.337 284.511 414.062 284.043C413.787 283.575 413.615 283.054 413.557 282.514C410.86 257.333 412.739 237.628 419.3 222.271C420.456 219.622 422.197 217.27 424.393 215.391C426.588 213.511 429.181 212.154 431.976 211.421L449 210.562L449.089 210.605C452.93 212.486 456.063 215.556 458.023 219.358C459.983 223.16 460.665 227.493 459.968 231.714C454.493 246.147 449.908 261.174 453.404 273.296C453.551 273.803 453.594 274.334 453.53 274.858C453.467 275.381 453.298 275.887 453.034 276.344C452.779 276.785 452.435 277.17 452.025 277.474C451.615 277.778 451.147 277.994 450.65 278.111L418.225 285.824C417.7 285.949 417.154 285.96 416.624 285.858C416.094 285.755 415.592 285.541 415.152 285.229Z" fill="#38BDF8"/>
<path d="M443.318 204.204C453.697 204.204 462.111 195.79 462.111 185.411C462.111 175.032 453.697 166.618 443.318 166.618C432.94 166.618 424.526 175.032 424.526 185.411C424.526 195.79 432.94 204.204 443.318 204.204Z" fill="#FFB8B8"/>
<path d="M391.173 200.295L376.527 206.761C375.97 207.006 375.338 207.02 374.771 206.8C374.203 206.58 373.746 206.144 373.5 205.588L373.138 204.767C372.892 204.21 372.878 203.578 373.098 203.011C373.318 202.444 373.754 201.986 374.311 201.74L388.957 195.275C389.514 195.03 390.145 195.016 390.712 195.236C391.28 195.455 391.737 195.891 391.983 196.448L392.346 197.269C392.591 197.826 392.605 198.457 392.385 199.025C392.165 199.592 391.729 200.049 391.173 200.295Z" fill="#CCCCCC"/>
<path d="M396.529 210.242L381.883 216.707C381.326 216.952 380.694 216.966 380.127 216.747C379.559 216.527 379.102 216.091 378.856 215.534L378.494 214.714C378.248 214.157 378.234 213.525 378.454 212.958C378.674 212.39 379.11 211.933 379.666 211.687L394.312 205.222C394.869 204.976 395.501 204.962 396.068 205.182C396.636 205.402 397.093 205.838 397.339 206.395L397.702 207.215C397.947 207.772 397.961 208.404 397.741 208.971C397.521 209.539 397.085 209.996 396.529 210.242Z" fill="#CCCCCC"/>
<path d="M407.823 249.094L375.171 223.334C374.911 223.426 374.646 223.504 374.378 223.568C373.226 223.838 372.029 223.862 370.867 223.639C369.705 223.416 368.602 222.951 367.631 222.274C366.654 221.597 365.832 220.718 365.222 219.698C364.611 218.678 364.226 217.538 364.091 216.357C363.872 214.468 364.298 212.561 365.299 210.944C366.301 209.328 367.819 208.097 369.607 207.452C370.724 207.052 371.912 206.892 373.094 206.982C374.277 207.073 375.427 207.413 376.469 207.979C377.511 208.545 378.422 209.325 379.141 210.268C379.861 211.21 380.374 212.294 380.645 213.449C380.729 213.815 380.788 214.186 380.821 214.56L413.325 233.311L421.414 228.655L430.374 240.386L417.815 249.337C416.345 250.376 414.578 250.914 412.778 250.87C410.978 250.826 409.241 250.203 407.823 249.094Z" fill="#FFB8B8"/>
<path d="M434.359 244.039L415.729 231.37L424.484 218.97C425.647 217.323 427.354 216.141 429.304 215.631C431.254 215.121 433.322 215.317 435.141 216.185C436.982 217.062 438.448 218.569 439.275 220.432C440.102 222.296 440.236 224.394 439.651 226.348L434.359 244.039Z" fill="#38BDF8"/>
<path d="M436.428 182.612C431.598 185.918 425.256 189.316 420.323 185.796C417.084 183.484 416.063 179.204 417.377 175.447C419.739 168.692 426.229 165.718 432.435 163.439C440.503 160.475 449.288 158.118 457.617 160.24C465.946 162.362 473.306 170.426 471.803 178.889C470.594 185.694 464.174 191.356 465.086 198.208C466.003 205.104 473.758 208.733 480.604 209.966C487.45 211.198 495.111 211.594 500.031 216.512C506.308 222.785 504.74 233.997 498.835 240.621C492.929 247.244 484.016 250.246 475.38 252.287C463.938 254.991 451.562 256.413 440.695 251.925C429.827 247.437 421.371 235.356 424.519 224.028C425.849 219.243 428.981 215.199 432.008 211.262C435.036 207.325 438.101 203.208 439.256 198.378C440.218 194.353 439.506 189.679 436.837 186.66C436.351 186.131 436.046 185.463 435.964 184.75C435.882 184.037 436.029 183.316 436.382 182.692L436.428 182.612Z" fill="#2F2E41"/>
<path d="M83.4551 273.918C78.6126 275.62 73.4133 276.047 68.3582 275.156C63.3031 274.266 58.5625 272.088 54.5932 268.834C44.4841 260.349 41.3147 246.371 38.7358 233.427C36.1931 220.666 33.6505 207.904 31.1079 195.143L47.0776 206.139C58.5621 214.047 70.3053 222.208 78.2571 233.662C86.2089 245.116 89.6798 260.752 83.2908 273.146" fill="#E6E6E6"/>
<path d="M82.0905 320.27C83.7068 308.496 85.3688 296.571 84.235 284.672C83.2281 274.103 80.0039 263.781 73.4398 255.318C69.9556 250.834 65.716 246.992 60.9116 243.965C59.6587 243.174 58.5057 245.16 59.753 245.947C68.0661 251.201 74.4959 258.959 78.1155 268.103C82.1132 278.271 82.7552 289.355 82.0663 300.157C81.6497 306.689 80.7667 313.178 79.877 319.659C79.8069 319.952 79.8506 320.261 79.9994 320.523C80.1482 320.785 80.391 320.981 80.6786 321.071C80.9721 321.15 81.2849 321.11 81.5492 320.96C81.8135 320.81 82.008 320.562 82.0905 320.27Z" fill="#F2F2F2"/>
<path d="M66.522 299.436C64.4451 302.592 61.5904 305.161 58.2327 306.894C54.8751 308.627 51.1277 309.466 47.3516 309.33C37.6473 308.869 29.5569 302.096 22.2741 295.666L0.73291 276.647L14.9896 275.965C25.2422 275.474 35.7592 275.016 45.5245 278.178C55.2897 281.34 64.2957 288.949 66.0813 299.057" fill="#E6E6E6"/>
<path d="M86.6582 327.038C78.8785 313.272 69.8547 297.973 53.7307 293.083C49.2474 291.728 44.5464 291.243 39.8808 291.653C38.4104 291.78 38.7776 294.046 40.2453 293.92C48.0658 293.271 55.8713 295.336 62.3475 299.767C68.5795 304.009 73.4317 309.907 77.5387 316.161C80.0543 319.991 82.3076 323.985 84.5614 327.973C85.2816 329.247 87.3869 328.327 86.6582 327.038Z" fill="#F2F2F2"/>
<path d="M99.123 341.527C98.8609 338.49 97.7703 335.582 95.9702 333.122C94.1701 330.662 91.7294 328.742 88.9139 327.573V319.615H75.5662V327.824C72.8892 329.051 70.5855 330.965 68.8897 333.372C67.1939 335.779 66.1668 338.593 65.913 341.527L62.7744 378.011H102.262L99.123 341.527Z" fill="#F2F2F2"/>
</g>
<defs>
<clipPath id="clip0_74_512">
<rect width="529.476" height="382.475" fill="white"/>
</clipPath>
</defs>
</svg>
