<svg width="534" height="336" viewBox="0 0 534 336" fill="none" xmlns="http://www.w3.org/2000/svg">
<g clip-path="url(#clip0_59_1290)">
<path d="M210.71 268.166H2.14767C1.57826 268.165 1.03236 267.939 0.629731 267.536C0.227103 267.134 0.000631438 266.588 0 266.018V62.7058C0.000631438 62.1364 0.227103 61.5905 0.629731 61.1878C1.03236 60.7852 1.57826 60.5587 2.14767 60.5581H210.71C211.279 60.5587 211.825 60.7852 212.228 61.1878C212.631 61.5905 212.857 62.1364 212.858 62.7058V266.018C212.857 266.588 212.631 267.134 212.228 267.536C211.825 267.939 211.279 268.165 210.71 268.166Z" fill="#F0F0F0"/>
<path d="M188.04 79.1711H24.8176C24.2483 79.172 23.7025 79.3985 23.2999 79.8011C22.8973 80.2037 22.6708 80.7495 22.6699 81.3188V207.793C22.6708 208.362 22.8973 208.908 23.2999 209.31C23.7025 209.713 24.2483 209.939 24.8176 209.94H188.04C188.61 209.939 189.155 209.713 189.558 209.31C189.961 208.908 190.187 208.362 190.188 207.793V81.3188C190.187 80.7495 189.961 80.2037 189.558 79.8011C189.155 79.3985 188.61 79.172 188.04 79.1711Z" fill="white"/>
<path d="M178.734 234.758H34.1243C33.808 234.757 33.5047 234.632 33.281 234.408C33.0574 234.184 32.9315 233.881 32.9312 233.565V226.883C32.9315 226.567 33.0574 226.263 33.281 226.04C33.5047 225.816 33.808 225.69 34.1243 225.69H178.734C179.05 225.69 179.354 225.816 179.577 226.04C179.801 226.263 179.927 226.567 179.927 226.883V233.565C179.927 233.881 179.801 234.184 179.577 234.408C179.354 234.632 179.05 234.757 178.734 234.758Z" fill="white"/>
<path d="M128.622 250.985H34.1243C33.808 250.984 33.5047 250.858 33.281 250.635C33.0574 250.411 32.9315 250.108 32.9312 249.792V243.11C32.9315 242.794 33.0574 242.49 33.281 242.267C33.5047 242.043 33.808 241.917 34.1243 241.917H128.622C128.938 241.917 129.241 242.043 129.465 242.267C129.689 242.49 129.814 242.794 129.815 243.11V249.792C129.814 250.108 129.689 250.411 129.465 250.635C129.241 250.858 128.938 250.984 128.622 250.985Z" fill="white"/>
<path d="M102.397 164.872C113.858 164.872 123.15 155.581 123.15 144.119C123.15 132.657 113.858 123.366 102.397 123.366C90.935 123.366 81.6436 132.657 81.6436 144.119C81.6436 155.581 90.935 164.872 102.397 164.872Z" fill="#FFB8B8"/>
<path d="M132.759 209.94H86.7466L88.2499 176.112L88.608 175.735L93.7718 170.28H110.204L116.293 176.179L116.785 176.656L129.752 189.084L132.759 209.94Z" fill="#38BDF8"/>
<path d="M94.6597 209.94H59.8484C59.7626 202.304 59.7148 197.732 59.7148 197.732L61.7288 196.505C61.7312 196.503 61.7346 196.501 61.7383 196.501H61.7432L83.9262 183.032L88.5841 175.468L88.6081 175.735L89.9779 191.68C89.9779 191.68 92.24 198.992 94.6597 209.94Z" fill="#2F2E41"/>
<path d="M153.167 209.94H116.294C116.852 187.671 113.845 175.468 115.392 175.468L116.294 176.179L127.161 184.76L141.484 190.015H141.493L151.368 193.637L153.1 194.272V195.088C153.105 197.045 153.114 202.395 153.167 209.94Z" fill="#2F2E41"/>
<path d="M82.7629 150.612C82.7629 150.612 84.5261 147.515 84.1162 137.171C83.7063 126.826 99.4585 132.677 112.621 131.69C125.784 130.704 122.997 148.961 122.997 148.961C122.997 148.961 123.947 147.875 125.98 139.064C128.013 130.253 123.397 121.471 123.397 121.471C122.038 112.212 114.711 115.18 114.711 115.18C118.239 116.553 117.561 119.491 117.561 119.491C114.575 114.254 107.248 117.222 107.248 117.222C97.4755 111.089 87.5716 119.165 87.5716 119.165C75.7665 121.844 82.6897 131.232 82.6897 131.232C70.8176 137.232 82.7629 150.612 82.7629 150.612Z" fill="#2F2E41"/>
<path d="M64.4971 209.94H50.1936C50.3051 208.178 50.3083 206.41 50.2031 204.648C49.3488 201.245 61.3663 196.644 61.7289 196.506C61.7314 196.503 61.7348 196.501 61.7385 196.501H61.7433L64.0341 197.732L64.4971 209.94Z" fill="#2F2E41"/>
<path d="M155.749 209.94H140.725L138.849 191.423L140.954 189.886C140.954 189.886 141.145 189.929 141.484 190.015H141.493C143.178 190.43 148.389 191.804 151.368 193.637C152.03 194.009 152.618 194.501 153.1 195.088C153.395 195.442 153.542 195.897 153.51 196.357C153.434 197.049 154.312 202.147 155.749 209.94Z" fill="#2F2E41"/>
<path d="M531.822 207.608H323.26C322.691 207.607 322.145 207.381 321.742 206.978C321.339 206.576 321.113 206.03 321.112 205.46V2.14767C321.113 1.57826 321.339 1.03237 321.742 0.629741C322.145 0.227112 322.691 0.00063322 323.26 0H531.822C532.392 0.000622568 532.938 0.227089 533.34 0.62972C533.743 1.03235 533.969 1.57826 533.97 2.14767V205.46C533.969 206.03 533.743 206.576 533.34 206.978C532.938 207.381 532.392 207.607 531.822 207.608Z" fill="#F0F0F0"/>
<path d="M509.153 18.6135H345.93C345.361 18.6144 344.815 18.8409 344.412 19.2435C344.01 19.6461 343.783 20.1919 343.782 20.7612V147.235C343.783 147.804 344.01 148.35 344.412 148.753C344.815 149.155 345.361 149.382 345.93 149.383H509.153C509.722 149.382 510.268 149.155 510.67 148.753C511.073 148.35 511.299 147.804 511.3 147.235V20.7612C511.299 20.1919 511.073 19.6461 510.67 19.2435C510.268 18.8409 509.722 18.6144 509.153 18.6135Z" fill="white"/>
<path d="M499.846 174.2H355.237C354.92 174.199 354.617 174.074 354.393 173.85C354.17 173.626 354.044 173.323 354.043 173.007V166.325C354.044 166.009 354.17 165.705 354.393 165.482C354.617 165.258 354.92 165.132 355.237 165.132H499.846C500.163 165.132 500.466 165.258 500.69 165.482C500.913 165.705 501.039 166.009 501.039 166.325V173.007C501.039 173.323 500.913 173.626 500.69 173.85C500.466 174.074 500.163 174.199 499.846 174.2Z" fill="white"/>
<path d="M449.734 190.427H355.237C354.92 190.426 354.617 190.3 354.393 190.077C354.17 189.853 354.044 189.55 354.043 189.233V182.552C354.044 182.235 354.17 181.932 354.393 181.709C354.617 181.485 354.92 181.359 355.237 181.359H449.734C450.05 181.359 450.354 181.485 450.577 181.709C450.801 181.932 450.927 182.235 450.927 182.552V189.233C450.927 189.55 450.801 189.853 450.577 190.077C450.354 190.3 450.05 190.426 449.734 190.427Z" fill="white"/>
<path d="M467.717 149.383C468.638 146.066 469.354 143.207 469.722 141.183C469.835 140.559 469.846 139.921 469.755 139.293C468.38 129.514 443.553 121.248 440.37 120.227L439.602 111.713L408.351 108.348L404.394 119.239L393.179 123.444C392.773 123.594 392.387 123.792 392.029 124.035C391.088 124.671 390.364 125.579 389.955 126.638C389.547 127.697 389.472 128.856 389.742 129.958L394.52 149.383L467.717 149.383Z" fill="#38BDF8"/>
<path d="M402.934 149.383H378.684C379.553 143.971 380.331 139.184 380.837 136.139C382.688 125.057 390.764 124.112 392.028 124.035C392.129 124.026 392.191 124.026 392.195 124.026H397.297L402.934 149.383Z" fill="#38BDF8"/>
<path d="M467.717 149.383H473.597C473.076 144.605 471.425 141.389 469.755 139.293C468.64 137.821 467.201 136.624 465.55 135.795L465.106 135.604L459.938 149.383H467.717Z" fill="#38BDF8"/>
<path d="M422.755 102.959C435.182 102.959 445.256 92.8848 445.256 80.4577C445.256 68.0307 435.182 57.9565 422.755 57.9565C410.328 57.9565 400.254 68.0307 400.254 80.4577C400.254 92.8848 410.328 102.959 422.755 102.959Z" fill="#A0616A"/>
<path d="M407.652 69.495C409.982 72.2517 413.923 73.0292 417.559 73.3453C424.944 73.9932 435.682 72.9425 442.899 71.2765C443.418 76.2686 442.011 81.6516 444.95 85.7588C446.329 80.7868 447.13 75.6728 447.339 70.5176C447.428 68.3066 447.393 66.0194 446.495 63.9898C445.597 61.9603 443.637 60.2373 441.381 60.2195C443.057 58.9481 445.021 58.109 447.098 57.7761L439.954 54.1857L441.789 52.302L428.854 51.5105L432.601 49.1308C426.96 48.3562 421.253 48.1767 415.575 48.5954C412.939 48.7894 410.183 49.1604 408.048 50.6879C405.912 52.2154 404.678 55.2505 406.004 57.4925C404.344 57.7651 402.781 58.457 401.464 59.5025C400.146 60.5481 399.117 61.9127 398.474 63.4671C397.522 65.881 397.61 68.5621 397.903 71.1344C398.39 75.2482 399.346 79.2928 400.752 83.1895" fill="#2F2E41"/>
<path d="M375.234 335.621H166.672C166.103 335.62 165.557 335.393 165.154 334.991C164.752 334.588 164.525 334.042 164.524 333.473V130.16C164.525 129.591 164.752 129.045 165.154 128.642C165.557 128.24 166.103 128.013 166.672 128.013H375.234C375.804 128.013 376.35 128.24 376.752 128.642C377.155 129.045 377.382 129.591 377.382 130.16V333.473C377.382 334.042 377.155 334.588 376.752 334.991C376.35 335.393 375.804 335.62 375.234 335.621Z" fill="#E4E4E4"/>
<path d="M352.565 146.626H189.342C188.773 146.627 188.227 146.853 187.824 147.256C187.422 147.659 187.195 148.204 187.194 148.774V275.247C187.195 275.817 187.422 276.363 187.824 276.765C188.227 277.168 188.773 277.394 189.342 277.395H352.565C353.134 277.394 353.68 277.168 354.082 276.765C354.485 276.363 354.712 275.817 354.712 275.247V148.774C354.712 148.204 354.485 147.659 354.082 147.256C353.68 146.853 353.134 146.627 352.565 146.626Z" fill="white"/>
<path d="M343.258 302.212H198.648C198.332 302.212 198.029 302.086 197.805 301.862C197.581 301.639 197.455 301.335 197.455 301.019V294.337C197.455 294.021 197.581 293.718 197.805 293.494C198.029 293.27 198.332 293.145 198.648 293.144H343.258C343.574 293.145 343.877 293.27 344.101 293.494C344.325 293.718 344.451 294.021 344.451 294.337V301.019C344.451 301.335 344.325 301.639 344.101 301.862C343.877 302.086 343.574 302.212 343.258 302.212Z" fill="white"/>
<path d="M293.146 318.439H198.648C198.332 318.439 198.029 318.313 197.805 318.089C197.581 317.865 197.455 317.562 197.455 317.246V310.564C197.455 310.248 197.581 309.945 197.805 309.721C198.029 309.497 198.332 309.371 198.648 309.371H293.146C293.462 309.371 293.765 309.497 293.989 309.721C294.213 309.945 294.338 310.248 294.339 310.564V317.246C294.338 317.562 294.213 317.865 293.989 318.089C293.765 318.313 293.462 318.439 293.146 318.439Z" fill="white"/>
<path d="M287.013 277.395H254.164L256.211 246.669L268.061 249.404L279.587 244.97L279.893 244.856L279.912 244.846C279.916 244.855 279.919 244.865 279.921 244.875C280.103 245.605 283.72 260.09 287.013 277.395Z" fill="#38BDF8"/>
<path d="M306.81 251.685L303.741 277.395H276.056L279.587 244.97L279.621 244.655L279.893 244.856L279.921 244.874L286.751 249.857L306.81 251.685Z" fill="#2F2E41"/>
<path d="M259.022 277.395H234.228L233.87 257.155L252.116 251.103L256.211 246.669C256.211 246.669 257.504 260.009 259.022 277.395Z" fill="#2F2E41"/>
<path d="M318.746 277.395H298.2L299.518 258.978L306.81 251.685C306.81 251.685 312.58 263.789 318.746 277.395Z" fill="#2F2E41"/>
<path d="M240.075 277.395H229.236C229.284 271.496 229.313 267.421 229.313 266.27C229.258 264.492 229.646 262.729 230.442 261.138C231.237 259.547 232.416 258.178 233.871 257.155L239.345 258.978L240.075 277.395Z" fill="#2F2E41"/>
<path d="M238.384 215.041C238.4 210.043 239.714 205.135 242.196 200.797C244.679 196.46 248.245 192.84 252.545 190.294C261.682 184.9 272.705 184.998 282.788 190.561C289.972 194.525 295.816 204.499 295.816 212.794V237.001H238.384V215.041Z" fill="#2F2E41"/>
<path d="M275.913 233.862C285.965 228.366 289.66 215.762 284.165 205.71C278.669 195.657 266.065 191.962 256.013 197.458C245.96 202.953 242.265 215.557 247.761 225.61C253.256 235.662 265.86 239.357 275.913 233.862Z" fill="#FFB8B8"/>
<path d="M244.33 215.856C244.173 215.675 243.805 215.249 246.364 195.561L246.445 195.239H246.676C259.646 188.858 272.805 188.698 285.79 194.76C286.19 194.949 286.534 195.24 286.787 195.602C287.041 195.964 287.197 196.387 287.238 196.827C288.754 215.325 288.388 215.729 288.231 215.901C287.993 216.162 287.704 216.37 287.381 216.513C287.058 216.656 286.709 216.73 286.356 216.73H280.603L280.482 216.513C279.494 214.677 278.41 212.895 277.235 211.173C276.695 212.887 276.252 214.63 275.909 216.394L275.839 216.73H246.245C245.882 216.73 245.523 216.652 245.192 216.502C244.862 216.351 244.568 216.131 244.33 215.856Z" fill="#2F2E41"/>
</g>
<defs>
<clipPath id="clip0_59_1290">
<rect width="533.97" height="335.62" fill="white"/>
</clipPath>
</defs>
</svg>
