<svg width="578" height="932" viewBox="0 0 578 932" fill="none" xmlns="http://www.w3.org/2000/svg">
<path d="M87.7594 1.69225C87.4548 2.75814 85.9321 8.84897 84.5617 15.0921C83.1912 21.3351 81.2117 29.8623 79.9936 34.1259C67.9642 79.3502 66.4415 113.154 75.5777 137.213C82.4299 155.79 86.2367 162.642 89.1298 162.642C92.7843 162.794 107.707 138.583 113.798 122.443C123.543 97.3181 124 95.0341 124 71.2799C124.152 47.3734 123.847 46.3075 113.798 26.0555C110.752 20.117 105.575 13.1125 100.246 8.0876C91.5661 -0.287273 88.673 -1.6577 87.7594 1.69225Z" fill="#eeeeee"/>
<path d="M14.6697 113.611C13.147 115.134 13.6038 132.645 15.2787 141.629C16.1924 146.197 17.5628 155.333 18.3242 162.033C21.6741 192.64 30.5058 224.312 41.7738 246.543C50.4532 263.902 70.4007 284.459 78.7755 284.611C81.6687 284.611 82.1255 283.545 83.1914 274.257C85.6277 250.807 82.1255 211.826 75.121 187.158C65.8325 153.811 48.3214 127.316 30.2013 118.941C19.39 114.068 15.5833 112.698 14.6697 113.611Z" fill="#eeeeee"/>
<path d="M154.606 188.224C134.506 213.501 115.929 249.437 107.707 278.52C101.311 300.752 100.55 305.777 100.55 325.876C100.55 351.915 103.443 361.66 115.625 377.344C120.497 383.587 120.954 383.739 122.934 381.151C125.065 378.257 149.276 329.226 153.54 319.633C154.758 316.74 156.738 312.324 157.804 310.04C159.022 307.604 159.935 304.711 159.935 303.34C159.935 302.122 160.849 299.229 162.067 297.097C164.351 292.681 167.397 282.936 171.051 268.623C176.99 245.478 178.208 224.16 174.553 206.953C172.421 196.294 165.265 179.544 162.828 179.544C162.067 179.544 158.413 183.503 154.606 188.224Z" fill="#eeeeee"/>
<path d="M0.964655 231.012C-0.862591 232.687 0.051032 262.532 2.48736 278.368C5.3805 298.772 8.88272 316.892 11.6236 325.724C15.5826 338.972 19.8462 351.762 21.2166 354.351C28.0688 367.903 30.3529 372.014 35.9869 380.694C42.839 391.048 65.9842 414.498 72.075 417.086C73.9022 418 78.3181 420.436 81.9726 422.568C91.4133 428.05 93.2406 426.832 92.0224 416.021C89.4338 389.83 78.9272 343.692 70.5523 321.917C69.3341 318.567 67.2023 313.086 65.8319 309.736C63.091 302.579 58.5229 292.681 55.9343 288.418C45.2754 270.754 39.0323 262.38 29.8961 252.787C19.2371 241.823 2.63963 229.185 0.964655 231.012Z" fill="#eeeeee"/>
<path d="M162.22 350.696C161.002 353.59 159.936 357.853 159.936 360.137C159.936 362.269 158.718 368.36 157.347 373.537C153.54 387.85 153.54 455.915 157.347 471.904C164.047 499.16 167.245 508.144 176.686 528.244C185.822 547.735 205.16 576.97 208.815 576.97C212.165 576.97 216.428 564.941 219.321 547.278C219.93 543.014 221.301 536.619 222.519 532.812C225.564 521.849 225.108 463.224 221.758 450.586C213.992 420.893 206.226 401.098 196.481 385.871C194.806 383.282 192.826 379.932 192.065 378.257C189.629 373.233 168.463 346.585 166.331 345.824C165.265 345.519 163.438 347.651 162.22 350.696Z" fill="#eeeeee"/>
<path d="M0.96464 404.6C-0.405795 406.732 6.14184 427.136 12.6895 441.449C23.5007 465.356 46.7981 488.653 77.2522 506.164C83.7998 509.971 90.1952 513.778 91.4133 514.539C101.159 520.326 151.712 544.993 153.997 544.993C156.585 544.993 156.89 544.232 156.128 539.207C154.453 529.31 150.647 518.194 143.642 503.119C132.374 478.603 108.315 455.001 73.9022 434.293C65.9841 429.572 38.1186 416.477 24.4143 410.995C19.8462 409.32 14.0599 406.732 11.7758 405.514C6.90319 403.077 2.1828 402.773 0.96464 404.6Z" fill="#eeeeee"/>
<path d="M35.9875 523.523C35.0738 524.894 36.4443 529.919 37.967 531.289C38.4238 531.746 40.5556 534.487 42.6874 537.38C61.2644 564.027 97.3525 598.136 122.629 612.906C126.741 615.343 131.613 618.083 133.288 619.149C134.963 620.215 137.856 621.738 139.836 622.652C141.815 623.413 146.84 625.697 151.256 627.676C173.488 637.879 194.653 643.36 223.889 647.015C240.334 648.994 240.639 648.994 240.639 646.253C240.639 643.208 224.803 619.149 213.992 605.902C201.962 591.284 169.833 562.048 161.458 558.241C160.24 557.632 157.195 555.805 154.606 554.13C148.059 550.019 132.375 541.796 127.959 540.425C125.827 539.664 120.498 537.685 115.929 536.01C103.443 531.289 84.8663 527.178 67.0506 525.198C38.5761 522.153 36.9011 522.001 35.9875 523.523Z" fill="#eeeeee"/>
<path d="M243.075 529.31C240.182 532.355 246.577 570.879 252.973 589.913C253.886 592.349 255.257 596.461 255.866 599.049C258.607 608.642 267.134 629.656 271.093 636.356C271.854 637.574 274.138 641.837 276.27 645.796C281.143 654.78 290.127 668.789 292.715 671.53C293.781 672.748 297.74 677.469 301.547 682.037C315.099 698.482 334.59 715.993 353.471 728.175C362.455 734.113 365.348 735.027 365.653 731.829C367.48 710.816 359.258 667.267 348.599 641.685C345.249 633.463 336.417 615.951 333.524 611.231C331.849 608.642 330.022 605.597 329.413 604.379C326.976 598.897 313.729 582.909 302.461 571.488C291.193 560.22 266.677 540.425 264.089 540.425C263.479 540.425 261.804 539.512 260.586 538.293C256.475 534.791 243.989 528.396 243.075 529.31Z" fill="#eeeeee"/>
<path d="M143.947 650.212C134.05 651.431 124.304 654.628 121.564 657.369C120.498 658.435 118.975 659.196 118.061 659.196C115.625 659.196 109.687 665.744 109.687 668.637C109.687 670.464 132.375 686.757 141.663 691.63C142.881 692.239 146.079 694.066 148.515 695.741C151.104 697.416 154.454 699.396 156.129 700.309C157.804 701.223 163.286 704.269 168.311 707.162C179.274 713.557 214.296 730.764 223.889 734.57C227.696 736.093 232.873 738.073 235.31 739.138C237.898 740.204 243.685 742.184 248.253 743.402C252.821 744.772 260.739 746.904 265.764 748.427C279.316 752.234 315.099 752.386 324.388 748.427C334.742 744.163 335.808 743.554 336.265 740.966C336.874 737.92 317.079 720.409 292.716 702.746C287.538 698.939 282.97 695.741 282.666 695.741C282.209 695.741 277.945 693.153 273.073 689.955C263.632 683.56 262.262 682.798 244.141 673.967C223.737 663.765 206.226 656.76 198.003 655.085C195.872 654.628 191.151 653.41 187.344 652.344C178.665 649.756 155.824 648.69 143.947 650.212Z" fill="#eeeeee"/>
<path d="M389.103 655.39C388.341 655.694 385.753 656.303 383.469 656.76C377.987 657.978 377.987 661.785 383.164 669.399C385.296 672.596 387.732 676.555 388.493 678.23C389.255 679.905 391.234 683.255 392.909 685.844C394.584 688.28 396.564 691.782 397.477 693.457C398.391 695.132 400.371 698.482 402.046 701.071C403.721 703.507 405.7 707.009 406.614 708.684C407.527 710.359 409.355 713.557 410.877 715.841C412.248 718.125 416.207 724.216 419.404 729.545C434.327 753.452 457.929 780.556 475.135 793.804C485.642 801.874 500.565 808.878 512.594 811.315C524.623 813.903 529.039 813.142 529.648 808.726C530.41 804.006 524.928 785.885 518.532 771.115C512.594 757.411 509.549 751.777 502.24 740.204C499.803 736.55 497.976 733.352 497.976 732.895C497.976 732.439 492.951 725.434 486.708 717.364C467.522 692.239 443.006 670.769 424.125 662.394C414.075 657.978 393.671 653.867 389.103 655.39Z" fill="#eeeeee"/>
<path d="M259.672 770.354C254.647 771.115 245.816 772.485 239.877 773.247C204.55 778.424 177.903 795.021 168.005 817.862C166.939 820.146 166.635 822.278 167.244 822.582C169.376 823.801 196.328 828.216 217.036 830.653C247.491 834.46 315.403 834.46 333.523 830.653C362.607 824.714 384.382 815.426 397.172 803.396C405.7 795.174 406.766 792.585 402.197 790.301C395.954 786.799 369.307 779.642 349.512 775.835C321.037 770.506 276.727 767.765 259.672 770.354Z" fill="#eeeeee"/>
<path d="M443.159 826.085C424.582 829.282 408.289 832.785 401.284 835.221C397.782 836.439 393.975 837.353 392.605 837.353C391.082 837.353 387.732 838.267 384.991 839.485C382.25 840.703 376.921 842.835 373.114 844.205C323.778 863.391 290.736 893.693 287.081 923.233C286.168 929.781 286.472 931.761 287.995 931.761C291.04 931.761 324.692 925.67 343.421 921.711C349.36 920.493 355.451 919.579 357.126 919.579C360.019 919.579 369.764 917.599 390.625 912.422C435.393 901.611 468.283 886.993 489.144 868.416C501.935 857.148 518.228 832.632 515.03 829.435C509.396 823.801 468.74 821.821 443.159 826.085Z" fill="#eeeeee"/>
<path d="M567.259 857.148C562.234 859.737 554.925 863.696 550.966 865.98C527.212 879.836 508.33 902.372 506.807 918.818L506.351 923.386L515.639 923.843C527.668 924.452 539.85 918.97 550.052 908.615C558.275 900.241 565.127 886.993 577.309 855.93C578.984 851.514 578.07 851.666 567.259 857.148Z" fill="#eeeeee"/>
</svg>
