<svg width="349" height="225" viewBox="0 0 349 225" fill="none" xmlns="http://www.w3.org/2000/svg">
<g filter="url(#filter0_ddddii_59_873)">
<rect x="36" y="36" width="270.983" height="146.818" rx="10" fill="#344050"/>
</g>
<path d="M125.161 153.37H107.211V117.026C107.211 116.506 107.004 116.007 106.636 115.639L89.9639 98.958L125.161 63.7612V153.37Z" stroke="white" stroke-width="3.36564"/>
<path d="M90.8677 107.01C90.9199 107.062 90.9496 107.134 90.9496 107.208V151.41C90.9496 151.565 91.0753 151.69 91.2301 151.69L101.881 151.688C102.036 151.688 102.162 151.814 102.162 151.969V154.773C102.162 154.928 102.037 155.054 101.882 155.054L87.8645 155.056C87.7096 155.057 87.584 154.931 87.584 154.776V104.404C87.584 104.153 87.8863 104.028 88.063 104.205L90.8677 107.01Z" fill="#EFB187"/>
<path d="M249.856 115.914V119.573H254.77V121.894H249.856V125.763H255.397V128.146H246.928V113.53H255.397V115.914H249.856Z" fill="white"/>
<path d="M227.658 120.828C227.658 119.392 227.979 118.11 228.62 116.981C229.275 115.837 230.16 114.952 231.275 114.325C232.404 113.683 233.666 113.363 235.06 113.363C236.691 113.363 238.12 113.781 239.347 114.618C240.573 115.454 241.43 116.611 241.918 118.089H238.552C238.217 117.392 237.743 116.869 237.13 116.521C236.531 116.172 235.833 115.998 235.039 115.998C234.189 115.998 233.429 116.2 232.76 116.604C232.105 116.995 231.589 117.552 231.212 118.277C230.85 119.002 230.669 119.852 230.669 120.828C230.669 121.79 230.85 122.64 231.212 123.379C231.589 124.104 232.105 124.668 232.76 125.073C233.429 125.463 234.189 125.658 235.039 125.658C235.833 125.658 236.531 125.484 237.13 125.136C237.743 124.773 238.217 124.243 238.552 123.546H241.918C241.43 125.038 240.573 126.202 239.347 127.038C238.134 127.861 236.705 128.272 235.06 128.272C233.666 128.272 232.404 127.958 231.275 127.331C230.16 126.689 229.275 125.804 228.62 124.675C227.979 123.546 227.658 122.264 227.658 120.828Z" fill="white"/>
<path d="M222.967 128.146H220.04L213.411 118.131V128.146H210.483V113.53H213.411L220.04 123.567V113.53H222.967V128.146Z" fill="white"/>
<path d="M201.956 125.366H196.143L195.182 128.146H192.108L197.356 113.53H200.765L206.013 128.146H202.918L201.956 125.366ZM201.162 123.024L199.05 116.918L196.938 123.024H201.162Z" fill="white"/>
<path d="M187.605 128.146H184.677L178.049 118.131V128.146H175.122V113.53H178.049L184.677 123.567V113.53H187.605V128.146Z" fill="white"/>
<path d="M169.72 113.551V128.146H166.792V113.551H169.72Z" fill="white"/>
<path d="M162.208 113.551V115.914H156.123V119.657H160.786V121.978H156.123V128.146H153.196V113.551H162.208Z" fill="white"/>
<path d="M192.935 91.2082V94.8672H197.849V97.1884H192.935V101.057H198.476V103.44H190.008V88.8242H198.476V91.2082H192.935Z" fill="white"/>
<path d="M184.606 103.44H181.678L175.05 93.4245V103.44H172.123V88.8242H175.05L181.678 98.8611V88.8242H184.606V103.44Z" fill="white"/>
<path d="M159.97 103.586C158.604 103.586 157.349 103.266 156.207 102.625C155.064 101.983 154.157 101.098 153.488 99.9689C152.819 98.8263 152.484 97.5367 152.484 96.1007C152.484 94.6792 152.819 93.4037 153.488 92.2745C154.157 91.1313 155.064 90.2388 156.207 89.5977C157.349 88.9565 158.604 88.6362 159.97 88.6362C161.351 88.6362 162.605 88.9565 163.734 89.5977C164.877 90.2388 165.776 91.1313 166.432 92.2745C167.101 93.4037 167.435 94.6792 167.435 96.1007C167.435 97.5367 167.101 98.8263 166.432 99.9689C165.776 101.098 164.877 101.983 163.734 102.625C162.591 103.266 161.337 103.586 159.97 103.586ZM159.97 100.973C160.849 100.973 161.622 100.778 162.291 100.387C162.96 99.9829 163.483 99.4113 163.86 98.6726C164.236 97.9338 164.424 97.0767 164.424 96.1007C164.424 95.1252 164.236 94.2748 163.86 93.5501C163.483 92.8107 162.96 92.2464 162.291 91.856C161.622 91.4656 160.849 91.2704 159.97 91.2704C159.092 91.2704 158.311 91.4656 157.628 91.856C156.96 92.2464 156.437 92.8107 156.06 93.5501C155.684 94.2748 155.495 95.1252 155.495 96.1007C155.495 97.0767 155.684 97.9338 156.06 98.6726C156.437 99.4113 156.96 99.9829 157.628 100.387C158.311 100.778 159.092 100.973 159.97 100.973Z" fill="white"/>
<defs>
<filter id="filter0_ddddii_59_873" x="0" y="0" width="348.983" height="224.818" filterUnits="userSpaceOnUse" color-interpolation-filters="sRGB">
<feFlood flood-opacity="0" result="BackgroundImageFix"/>
<feColorMatrix in="SourceAlpha" type="matrix" values="0 0 0 0 0 0 0 0 0 0 0 0 0 0 0 0 0 0 127 0" result="hardAlpha"/>
<feOffset dx="12" dy="12"/>
<feGaussianBlur stdDeviation="15"/>
<feColorMatrix type="matrix" values="0 0 0 0 0.941176 0 0 0 0 0.941176 0 0 0 0 0.941176 0 0 0 0.9 0"/>
<feBlend mode="normal" in2="BackgroundImageFix" result="effect1_dropShadow_59_873"/>
<feColorMatrix in="SourceAlpha" type="matrix" values="0 0 0 0 0 0 0 0 0 0 0 0 0 0 0 0 0 0 127 0" result="hardAlpha"/>
<feOffset dx="-12" dy="-12"/>
<feGaussianBlur stdDeviation="12"/>
<feColorMatrix type="matrix" values="0 0 0 0 1 0 0 0 0 1 0 0 0 0 1 0 0 0 0.9 0"/>
<feBlend mode="normal" in2="effect1_dropShadow_59_873" result="effect2_dropShadow_59_873"/>
<feColorMatrix in="SourceAlpha" type="matrix" values="0 0 0 0 0 0 0 0 0 0 0 0 0 0 0 0 0 0 127 0" result="hardAlpha"/>
<feOffset dx="12" dy="-12"/>
<feGaussianBlur stdDeviation="12"/>
<feColorMatrix type="matrix" values="0 0 0 0 0.941176 0 0 0 0 0.941176 0 0 0 0 0.941176 0 0 0 0.2 0"/>
<feBlend mode="normal" in2="effect2_dropShadow_59_873" result="effect3_dropShadow_59_873"/>
<feColorMatrix in="SourceAlpha" type="matrix" values="0 0 0 0 0 0 0 0 0 0 0 0 0 0 0 0 0 0 127 0" result="hardAlpha"/>
<feOffset dx="-12" dy="12"/>
<feGaussianBlur stdDeviation="12"/>
<feColorMatrix type="matrix" values="0 0 0 0 0.941176 0 0 0 0 0.941176 0 0 0 0 0.941176 0 0 0 0.2 0"/>
<feBlend mode="normal" in2="effect3_dropShadow_59_873" result="effect4_dropShadow_59_873"/>
<feBlend mode="normal" in="SourceGraphic" in2="effect4_dropShadow_59_873" result="shape"/>
<feColorMatrix in="SourceAlpha" type="matrix" values="0 0 0 0 0 0 0 0 0 0 0 0 0 0 0 0 0 0 127 0" result="hardAlpha"/>
<feOffset dx="-1" dy="-1"/>
<feGaussianBlur stdDeviation="1"/>
<feComposite in2="hardAlpha" operator="arithmetic" k2="-1" k3="1"/>
<feColorMatrix type="matrix" values="0 0 0 0 0.941176 0 0 0 0 0.941176 0 0 0 0 0.941176 0 0 0 0.5 0"/>
<feBlend mode="normal" in2="shape" result="effect5_innerShadow_59_873"/>
<feColorMatrix in="SourceAlpha" type="matrix" values="0 0 0 0 0 0 0 0 0 0 0 0 0 0 0 0 0 0 127 0" result="hardAlpha"/>
<feOffset dx="1" dy="1"/>
<feGaussianBlur stdDeviation="1"/>
<feComposite in2="hardAlpha" operator="arithmetic" k2="-1" k3="1"/>
<feColorMatrix type="matrix" values="0 0 0 0 1 0 0 0 0 1 0 0 0 0 1 0 0 0 0.3 0"/>
<feBlend mode="normal" in2="effect5_innerShadow_59_873" result="effect6_innerShadow_59_873"/>
</filter>
</defs>
</svg>
